<svg width="18" height="24" viewBox="0 0 18 24" fill="none" xmlns="http://www.w3.org/2000/svg">
<path d="M10.6245 4.72732C10.8425 4.72732 11.054 4.73699 11.2655 4.7532C11.9514 4.81155 12.6116 4.96395 13.2301 5.19088C14.791 5.76792 16.1146 6.84099 17.0088 8.22524C16.6371 5.34652 14.9064 2.89895 12.4866 1.57305C11.2431 0.889035 9.81688 0.5 8.30092 0.5C7.02213 0.5 5.035 0.77227 3.9389 1.26827C2.29795 1.868 1.2243 2.84379 0 3.94924L5.07348 7.15543C6.46124 5.65771 8.43232 4.72732 10.6245 4.72732Z" fill="#003EDC"/>
<path d="M15.9666 11.9554H15.9634C15.8096 11.9684 15.6558 11.9781 15.5051 11.9846H15.4667C14.8289 12.0008 14.1846 11.9359 13.5597 11.7901C12.7488 11.602 11.9604 11.2811 11.2329 10.8175C10.7521 10.516 10.3002 10.153 9.88356 9.73156C9.76498 9.61485 9.65287 9.49162 9.5471 9.36844C8.76829 8.4737 8.23305 7.44604 7.93499 6.36328C7.06964 6.77823 6.29399 7.35526 5.64658 8.049C4.89982 8.84973 4.32293 9.81261 3.97038 10.8792C3.89987 11.0964 3.83574 11.32 3.78126 11.5502L3.62743 12.4254L3.0153 15.9331L2.87109 16.75L3.40309 16.2897L4.2973 15.5116L4.15309 13.5537C4.12104 13.3559 4.10497 13.1549 4.10497 12.9474V12.9279L9.29069 13.0447C8.44778 13.4337 6.96064 14.7433 6.38054 15.3593L6.37412 15.369C6.24272 15.5084 6.11774 15.6511 5.99595 15.8002L5.55363 17.5962L5.50237 17.8036H5.50558L5.38062 18.3093L5.35817 18.4034L4.10497 23.4995L8.83232 20.9416L8.87723 20.705L9.05673 19.7519C9.07596 19.6612 9.09517 19.5834 9.1144 19.5153C9.16568 19.3208 9.19135 19.2268 9.2234 19.1393C9.27468 18.9772 9.33237 18.8183 9.38685 18.6756C10.4669 15.8326 11.8226 15.1842 11.7328 15.1842C11.8034 15.1259 11.8803 15.0707 11.9572 15.0189C12.6142 14.5553 13.4732 14.2214 14.4026 14.0918C14.5436 14.0723 14.7039 14.0561 14.8705 14.0528L14.9155 14.0496L15.7712 13.0868L16.9025 11.8095L16.8416 11.8225C16.5499 11.8841 16.2583 11.9295 15.9666 11.9554Z" fill="#003EDC"/>
</svg>
