<svg width="116" height="19" viewBox="0 0 116 19" fill="none" xmlns="http://www.w3.org/2000/svg">
<path d="M5.43616 19C4.18283 19 3.09616 18.78 2.17616 18.34C1.2695 17.9133 0.816162 17.2533 0.816162 16.36C0.816162 15.8267 1.03616 15.3533 1.47616 14.94C1.9295 14.5267 2.50283 14.1867 3.19616 13.92C3.8895 13.64 4.67616 13.3933 5.55616 13.18C5.7295 13.1267 5.8695 13.0933 5.97616 13.08L6.35616 13.48C5.7695 13.6667 5.2895 13.86 4.91616 14.06C4.54283 14.26 4.25616 14.4867 4.05616 14.74C3.85616 14.98 3.75616 15.2467 3.75616 15.54C3.75616 15.9533 3.94283 16.24 4.31616 16.4C4.70283 16.5733 5.2095 16.66 5.83616 16.66C6.43616 16.66 7.0095 16.5933 7.55616 16.46C8.11616 16.3267 8.57616 16.1333 8.93616 15.88C9.29616 15.6267 9.47616 15.3267 9.47616 14.98C9.47616 14.7533 9.37616 14.5733 9.17616 14.44C8.97616 14.3067 8.69616 14.24 8.33616 14.24C8.01616 14.24 7.6895 14.2733 7.35616 14.34C7.02283 14.3933 6.6095 14.48 6.11616 14.6C5.6895 14.72 5.32283 14.8067 5.01616 14.86C4.7095 14.9267 4.42283 14.96 4.15616 14.96C3.6095 14.96 3.10283 14.8667 2.63616 14.68C2.18283 14.48 1.81616 14.2133 1.53616 13.88C1.2695 13.5333 1.13616 13.14 1.13616 12.7C1.13616 12.0867 1.44283 11.5533 2.05616 11.1C2.68283 10.6333 3.54283 10.2267 4.63616 9.88L5.29616 10.46C5.12283 10.5133 4.96283 10.5667 4.81616 10.62C4.4695 10.74 4.2095 10.8733 4.03616 11.02C3.86283 11.1667 3.77616 11.3667 3.77616 11.62C3.77616 11.8333 3.86283 11.9933 4.03616 12.1C4.22283 12.2067 4.45616 12.26 4.73616 12.26C5.04283 12.26 5.36283 12.24 5.69616 12.2C6.0295 12.1467 6.37616 12.08 6.73616 12C7.3095 11.8933 7.8095 11.8133 8.23616 11.76C8.66283 11.7067 9.1295 11.68 9.63616 11.68C10.5295 11.68 11.2695 11.8933 11.8562 12.32C12.4562 12.7467 12.7562 13.4 12.7562 14.28C12.7562 15.2933 12.3762 16.1533 11.6162 16.86C10.8695 17.58 9.9295 18.1133 8.79616 18.46C7.66283 18.82 6.54283 19 5.43616 19ZM6.27616 11.3C5.3295 11.3 4.4895 11.14 3.75616 10.82C3.03616 10.4867 2.4695 10.0267 2.05616 9.44C1.65616 8.85333 1.45616 8.19333 1.45616 7.46C1.45616 6.74 1.65616 6.09333 2.05616 5.52C2.4695 4.93333 3.04283 4.48 3.77616 4.16C4.5095 3.82667 5.34283 3.66 6.27616 3.66C6.8495 3.66 7.3095 3.70667 7.65616 3.8C8.01616 3.89333 8.40283 4.02 8.81616 4.18C8.97616 4.24667 9.12283 4.30667 9.25616 4.36C9.40283 4.4 9.54283 4.42 9.67616 4.42C10.0228 4.42 10.2695 4.3 10.4162 4.06C10.5628 3.82 10.6362 3.50667 10.6362 3.12L13.1562 3.92C13.1428 4.42667 12.9362 4.82 12.5362 5.1C12.1495 5.36667 11.6362 5.5 10.9962 5.5C10.8362 5.48667 10.6562 5.47333 10.4562 5.46C10.8828 6.04667 11.0962 6.71333 11.0962 7.46C11.0962 8.19333 10.8895 8.85333 10.4762 9.44C10.0762 10.0267 9.5095 10.4867 8.77616 10.82C8.04283 11.14 7.2095 11.3 6.27616 11.3ZM6.27616 9.34C6.6095 9.34 6.90283 9.26 7.15616 9.1C7.4095 8.94 7.60283 8.72 7.73616 8.44C7.8695 8.14667 7.93616 7.82 7.93616 7.46C7.93616 6.92667 7.78283 6.48667 7.47616 6.14C7.18283 5.79333 6.78283 5.62 6.27616 5.62C5.94283 5.62 5.6495 5.7 5.39616 5.86C5.14283 6.02 4.94283 6.24 4.79616 6.52C4.66283 6.8 4.59616 7.11333 4.59616 7.46C4.59616 8.00667 4.7495 8.46 5.05616 8.82C5.37616 9.16667 5.78283 9.34 6.27616 9.34Z" fill="#F5F0EC"/>
<path d="M13.879 3.94H17.039V12.22C17.039 13.1667 17.0856 14.0333 17.179 14.82H13.879V3.94ZM13.839 0H17.059V2.78H13.839V0Z" fill="#F5F0EC"/>
<path d="M28.499 15.1C27.6456 15.1 26.979 14.8533 26.499 14.36C26.019 13.8667 25.779 13.1467 25.779 12.2V7.88C25.779 7.24 25.6256 6.76 25.319 6.44C25.0256 6.10667 24.5723 5.94 23.959 5.94C23.319 5.94 22.699 6.12667 22.099 6.5C21.499 6.87333 20.979 7.42 20.539 8.14L18.379 6.46C19.139 5.54 20.019 4.84667 21.019 4.38C22.0323 3.9 23.1256 3.66 24.299 3.66C25.3923 3.66 26.279 3.83333 26.959 4.18C27.639 4.51333 28.139 4.99333 28.459 5.62C28.779 6.23333 28.939 6.96 28.939 7.8V12.3C28.939 12.3133 28.939 12.3267 28.939 12.34C28.939 12.34 28.939 12.3467 28.939 12.36C28.9523 12.5867 29.0056 12.7533 29.099 12.86C29.1923 12.9667 29.3256 13.02 29.499 13.02C29.6456 13.02 29.7856 13.0133 29.919 13C30.0656 12.9733 30.219 12.9333 30.379 12.88L29.979 14.82C29.7523 14.9133 29.5123 14.98 29.259 15.02C29.0056 15.0733 28.7523 15.1 28.499 15.1ZM21.979 15.1C20.8856 15.1 20.019 14.82 19.379 14.26C18.7523 13.6867 18.439 12.9533 18.439 12.06C18.439 11.2733 18.7323 10.5733 19.319 9.96C19.9056 9.33333 20.779 8.82667 21.939 8.44C23.099 8.05333 24.5256 7.79333 26.219 7.66V9.66C25.1923 9.75333 24.3456 9.88667 23.679 10.06C23.0256 10.2333 22.5323 10.4533 22.199 10.72C21.879 10.9733 21.719 11.28 21.719 11.64C21.719 11.9333 21.8256 12.1733 22.039 12.36C22.2656 12.5333 22.5723 12.62 22.959 12.62C23.479 12.62 23.9523 12.5067 24.379 12.28C24.8056 12.0533 25.1456 11.7333 25.399 11.32C25.6523 10.9067 25.779 10.42 25.779 9.86L26.399 10.04C26.399 10.8933 26.2456 11.7067 25.939 12.48C25.6323 13.24 25.1456 13.8667 24.479 14.36C23.8256 14.8533 22.9923 15.1 21.979 15.1Z" fill="#F5F0EC"/>
<path d="M31.2423 3.94H34.4223V6.54C34.8489 5.62 35.3556 4.91333 35.9423 4.42C36.5289 3.91333 37.1356 3.66 37.7623 3.66C38.1356 3.66 38.4689 3.72 38.7623 3.84C39.0556 3.94667 39.3489 4.1 39.6423 4.3L38.3623 7.08C38.0823 6.89333 37.8289 6.76 37.6023 6.68C37.3756 6.58667 37.1156 6.54 36.8223 6.54C36.3956 6.54 36.0023 6.66667 35.6423 6.92C35.2823 7.16 34.9889 7.52667 34.7623 8.02C34.5356 8.51333 34.4223 9.10667 34.4223 9.8V12.22C34.4223 13.1667 34.4689 14.0333 34.5623 14.82H31.2423V3.94Z" fill="#F5F0EC"/>
<path d="M44.4174 15.1C43.3774 15.1 42.4707 14.8667 41.6974 14.4C40.9241 13.92 40.3241 13.2533 39.8974 12.4C39.4841 11.5333 39.2774 10.5267 39.2774 9.38C39.2774 8.23333 39.4841 7.23333 39.8974 6.38C40.3241 5.51333 40.9241 4.84667 41.6974 4.38C42.4707 3.9 43.3774 3.66 44.4174 3.66C45.1507 3.66 45.8374 3.84667 46.4774 4.22C47.1174 4.59333 47.6374 5.10667 48.0374 5.76V0.52H50.8162V12.22C50.8162 13.1667 50.8695 14.0333 50.9762 14.82H48.0374V12.92C47.6507 13.6 47.1374 14.1333 46.4974 14.52C45.8707 14.9067 45.1774 15.1 44.4174 15.1ZM42.6174 9.38C42.6174 10.0333 42.7307 10.6133 42.9574 11.12C43.1841 11.6133 43.4974 12 43.8974 12.28C44.2974 12.5467 44.7707 12.68 45.3174 12.68C45.8107 12.68 46.2641 12.54 46.6774 12.26C47.0907 11.98 47.4174 11.6133 47.6574 11.16C47.9107 10.6933 48.0374 10.2 48.0374 9.68V9.08C48.0374 8.53333 47.9107 8.03333 47.6574 7.58C47.4041 7.12667 47.0641 6.76667 46.6374 6.5C46.2241 6.22 45.7841 6.08 45.3174 6.08C44.7707 6.08 44.2974 6.22 43.8974 6.5C43.4974 6.76667 43.1841 7.15333 42.9574 7.66C42.7307 8.15333 42.6174 8.72667 42.6174 9.38Z" fill="#F5F0EC"/>
<path d="M57.8596 15.1C56.8463 15.1 55.9463 14.86 55.1596 14.38C54.3729 13.9 53.7596 13.2267 53.3196 12.36C52.8929 11.4933 52.6796 10.5 52.6796 9.38C52.6796 8.26 52.8929 7.26667 53.3196 6.4C53.7596 5.53333 54.3729 4.86 55.1596 4.38C55.9463 3.9 56.8463 3.66 57.8596 3.66C58.7263 3.66 59.5129 3.89333 60.2196 4.36C60.9396 4.81333 61.4929 5.43333 61.8796 6.22V0.52H63.6996V12.22C63.6996 13.18 63.7329 14.0467 63.7996 14.82H61.8796V12.52C61.5063 13.3067 60.9596 13.9333 60.2396 14.4C59.5329 14.8667 58.7396 15.1 57.8596 15.1ZM54.6396 9.38C54.6396 10.2067 54.7929 10.9467 55.0996 11.6C55.4063 12.24 55.8329 12.74 56.3796 13.1C56.9263 13.46 57.5529 13.64 58.2596 13.64C58.9263 13.64 59.5329 13.4667 60.0796 13.12C60.6396 12.7733 61.0796 12.32 61.3996 11.76C61.7196 11.1867 61.8796 10.56 61.8796 9.88V8.88C61.8796 8.2 61.7129 7.57333 61.3796 7C61.0596 6.42667 60.6196 5.97333 60.0596 5.64C59.5129 5.29333 58.9129 5.12 58.2596 5.12C57.5529 5.12 56.9263 5.3 56.3796 5.66C55.8329 6.02 55.4063 6.52667 55.0996 7.18C54.7929 7.82 54.6396 8.55333 54.6396 9.38Z" fill="#F5F0EC"/>
<path d="M71.1121 15.1C70.1254 15.1 69.2121 14.8933 68.3721 14.48C67.5321 14.0667 66.8588 13.4533 66.3521 12.64C65.8588 11.8267 65.6121 10.84 65.6121 9.68C65.6121 8.52 65.8454 7.48667 66.3121 6.58C66.7921 5.66 67.4454 4.94667 68.2721 4.44C69.1121 3.92 70.0654 3.66 71.1321 3.66C72.2254 3.66 73.1521 3.90667 73.9121 4.4C74.6721 4.89333 75.2454 5.59333 75.6321 6.5C76.0321 7.39333 76.2321 8.44 76.2321 9.64H66.5121V8.22H75.0121L74.3521 8.8C74.3521 8.09334 74.2254 7.46 73.9721 6.9C73.7188 6.32667 73.3454 5.88 72.8521 5.56C72.3721 5.24 71.7988 5.08 71.1321 5.08C70.4121 5.08 69.7788 5.26667 69.2321 5.64C68.6988 6 68.2788 6.52667 67.9721 7.22C67.6654 7.9 67.5121 8.69333 67.5121 9.6C67.5121 10.52 67.6788 11.2867 68.0121 11.9C68.3454 12.5133 68.7854 12.9667 69.3321 13.26C69.8788 13.54 70.4788 13.68 71.1321 13.68C72.0788 13.68 72.8654 13.4333 73.4921 12.94C74.1321 12.4467 74.5921 11.8267 74.8721 11.08L76.3921 12.14C75.7654 13.1 75.0054 13.8333 74.1121 14.34C73.2188 14.8467 72.2188 15.1 71.1121 15.1Z" fill="#F5F0EC"/>
<path d="M82.6438 15.1C81.5105 15.1 80.4505 14.8533 79.4638 14.36C78.4905 13.8533 77.7105 13.16 77.1238 12.28L78.4838 11.16C78.8572 11.9733 79.4172 12.6067 80.1638 13.06C80.9238 13.5133 81.7638 13.74 82.6838 13.74C83.1638 13.74 83.5905 13.6733 83.9638 13.54C84.3372 13.3933 84.6305 13.1933 84.8438 12.94C85.0572 12.6733 85.1638 12.36 85.1638 12C85.1638 11.6133 85.0238 11.2933 84.7438 11.04C84.4638 10.7733 84.1171 10.5667 83.7038 10.42C83.3038 10.26 82.7438 10.0867 82.0238 9.9C81.1305 9.66 80.4038 9.43333 79.8438 9.22C79.2971 8.99333 78.8238 8.67333 78.4238 8.26C78.0372 7.84667 77.8438 7.3 77.8438 6.62C77.8438 6.04667 78.0105 5.53333 78.3438 5.08C78.6772 4.62667 79.1505 4.28 79.7638 4.04C80.3772 3.78667 81.0705 3.66 81.8438 3.66C82.8172 3.66 83.7171 3.82667 84.5438 4.16C85.3838 4.49333 86.1238 5.08667 86.7638 5.94L85.4038 7.06C85.0838 6.39333 84.5972 5.88667 83.9438 5.54C83.2905 5.19333 82.5838 5.02 81.8238 5.02C81.1705 5.02 80.6371 5.15333 80.2238 5.42C79.8238 5.67333 79.6238 6.01333 79.6238 6.44C79.6238 6.78667 79.7505 7.07333 80.0038 7.3C80.2705 7.52667 80.5972 7.71333 80.9838 7.86C81.3705 7.99333 81.8972 8.14667 82.5638 8.32C83.4972 8.57333 84.2505 8.81333 84.8238 9.04C85.4105 9.26667 85.9105 9.60667 86.3238 10.06C86.7505 10.5 86.9638 11.0867 86.9638 11.82C86.9638 12.4867 86.7705 13.0733 86.3838 13.58C85.9972 14.0733 85.4771 14.4533 84.8238 14.72C84.1838 14.9733 83.4571 15.1 82.6438 15.1Z" fill="#F5F0EC"/>
<path d="M88.6521 3.94H90.4721V12.22C90.4721 13.18 90.5054 14.0467 90.5721 14.82H88.6521V3.94ZM88.5321 0.36H90.5921V2.3H88.5321V0.36Z" fill="#F5F0EC"/>
<path d="M96.1094 19C94.9894 19 94.0294 18.7733 93.2294 18.32C92.4294 17.8667 92.0294 17.2 92.0294 16.32C92.0294 15.8267 92.2028 15.3867 92.5494 15C92.8961 14.6133 93.3628 14.2867 93.9494 14.02C94.5361 13.74 95.2361 13.5 96.0494 13.3C96.2094 13.26 96.3494 13.2267 96.4694 13.2L96.7094 13.52C96.0961 13.72 95.5828 13.9333 95.1694 14.16C94.7561 14.3733 94.4294 14.6267 94.1894 14.92C93.9494 15.2133 93.8294 15.56 93.8294 15.96C93.8294 16.52 94.0761 16.9333 94.5694 17.2C95.0761 17.4667 95.7028 17.6 96.4494 17.6C97.2494 17.6 98.0294 17.48 98.7894 17.24C99.5628 17 100.189 16.66 100.669 16.22C101.149 15.7933 101.389 15.3 101.389 14.74C101.389 14.3533 101.256 14.0533 100.989 13.84C100.723 13.6133 100.336 13.5 99.8294 13.5C99.5094 13.5 99.1628 13.54 98.7894 13.62C98.4294 13.6867 97.9361 13.8 97.3094 13.96C96.7894 14.1067 96.3561 14.22 96.0094 14.3C95.6628 14.3667 95.3561 14.4 95.0894 14.4C94.6094 14.4 94.1628 14.3333 93.7494 14.2C93.3494 14.0533 93.0228 13.8467 92.7694 13.58C92.5294 13.3 92.4094 12.9733 92.4094 12.6C92.4094 12.04 92.6894 11.5467 93.2494 11.12C93.8094 10.68 94.5628 10.3333 95.5094 10.08L95.8894 10.58C95.6094 10.66 95.3761 10.7467 95.1894 10.84C94.7894 11 94.4961 11.1867 94.3094 11.4C94.1228 11.6 94.0294 11.82 94.0294 12.06C94.0294 12.3267 94.1494 12.5133 94.3894 12.62C94.6294 12.7267 94.9428 12.78 95.3294 12.78C95.6628 12.78 96.0094 12.7467 96.3694 12.68C96.7294 12.6 97.1428 12.5 97.6094 12.38C98.1694 12.2333 98.6494 12.1267 99.0494 12.06C99.4628 11.98 99.8894 11.94 100.329 11.94C101.236 11.94 101.963 12.1533 102.509 12.58C103.056 13.0067 103.329 13.6267 103.329 14.44C103.329 15.36 102.969 16.1667 102.249 16.86C101.543 17.5533 100.629 18.08 99.5094 18.44C98.4028 18.8133 97.2694 19 96.1094 19ZM97.1894 11.18C96.3361 11.18 95.5828 11.02 94.9294 10.7C94.2761 10.3667 93.7628 9.91333 93.3894 9.34C93.0294 8.76667 92.8494 8.12667 92.8494 7.42C92.8494 6.71334 93.0294 6.07333 93.3894 5.5C93.7628 4.92667 94.2761 4.48 94.9294 4.16C95.5961 3.82667 96.3494 3.66 97.1894 3.66C97.7628 3.66 98.2361 3.72 98.6094 3.84C98.9828 3.96 99.3761 4.12 99.7894 4.32C100.016 4.44 100.209 4.53333 100.369 4.6C100.529 4.65333 100.696 4.68 100.869 4.68C101.269 4.68 101.556 4.56 101.729 4.32C101.916 4.06667 102.009 3.74 102.009 3.34L103.529 3.86C103.516 4.39333 103.309 4.8 102.909 5.08C102.509 5.36 102.043 5.5 101.509 5.5C101.376 5.5 101.196 5.48667 100.969 5.46C101.356 6.02 101.549 6.67333 101.549 7.42C101.549 8.12667 101.369 8.76667 101.009 9.34C100.649 9.91333 100.136 10.3667 99.4694 10.7C98.8028 11.02 98.0428 11.18 97.1894 11.18ZM97.1894 9.96C97.7094 9.96 98.1561 9.85333 98.5294 9.64C98.9028 9.41333 99.1894 9.10667 99.3894 8.72C99.5894 8.32 99.6894 7.88667 99.6894 7.42C99.6894 6.7 99.4628 6.1 99.0094 5.62C98.5694 5.12667 97.9628 4.88 97.1894 4.88C96.6828 4.88 96.2361 4.99333 95.8494 5.22C95.4761 5.44667 95.1894 5.75333 94.9894 6.14C94.8028 6.51333 94.7094 6.94 94.7094 7.42C94.7094 8.15333 94.9294 8.76 95.3694 9.24C95.8228 9.72 96.4294 9.96 97.1894 9.96Z" fill="#F5F0EC"/>
<path d="M104.824 3.94H106.644V7.1C106.911 6.42 107.291 5.82 107.784 5.3C108.277 4.78 108.837 4.38 109.464 4.1C110.091 3.80667 110.731 3.66 111.384 3.66C112.197 3.66 112.877 3.82 113.424 4.14C113.984 4.44667 114.397 4.87333 114.664 5.42C114.944 5.96667 115.084 6.6 115.084 7.32V12.22C115.084 13.18 115.117 14.0467 115.184 14.82H113.264V7.6C113.264 6.8 113.064 6.19333 112.664 5.78C112.277 5.36667 111.657 5.16 110.804 5.16C110.177 5.16 109.537 5.35333 108.884 5.74C108.244 6.12667 107.711 6.67333 107.284 7.38C106.857 8.07333 106.644 8.88 106.644 9.8V14.82H104.824V3.94Z" fill="#F5F0EC"/>
</svg>
