<svg width="113" height="24" viewBox="0 0 113 24" fill="none" xmlns="http://www.w3.org/2000/svg">
<path d="M10.6245 4.72732C10.8425 4.72732 11.054 4.73699 11.2655 4.7532C11.9514 4.81155 12.6116 4.96395 13.2301 5.19088C14.791 5.76792 16.1146 6.84099 17.0088 8.22524C16.6371 5.34652 14.9064 2.89895 12.4866 1.57305C11.2431 0.889035 9.81688 0.5 8.30092 0.5C7.02213 0.5 5.035 0.77227 3.9389 1.26827C2.29795 1.868 1.2243 2.84379 0 3.94924L5.07348 7.15543C6.46124 5.65771 8.43232 4.72732 10.6245 4.72732Z" fill="#003EDC"/>
<path d="M15.9666 11.9554H15.9634C15.8096 11.9684 15.6558 11.9781 15.5051 11.9846H15.4667C14.8289 12.0008 14.1846 11.9359 13.5597 11.7901C12.7488 11.602 11.9604 11.2811 11.2329 10.8175C10.7521 10.516 10.3002 10.153 9.88356 9.73156C9.76498 9.61485 9.65287 9.49162 9.5471 9.36844C8.76829 8.4737 8.23305 7.44604 7.93499 6.36328C7.06964 6.77823 6.29399 7.35526 5.64658 8.049C4.89982 8.84973 4.32293 9.81261 3.97038 10.8792C3.89987 11.0964 3.83574 11.32 3.78126 11.5502L3.62743 12.4254L3.0153 15.9331L2.87109 16.75L3.40309 16.2897L4.2973 15.5116L4.15309 13.5537C4.12104 13.3559 4.10497 13.1549 4.10497 12.9474V12.9279L9.29069 13.0447C8.44778 13.4337 6.96064 14.7433 6.38054 15.3593L6.37412 15.369C6.24272 15.5084 6.11774 15.6511 5.99595 15.8002L5.55363 17.5962L5.50237 17.8036H5.50558L5.38062 18.3093L5.35817 18.4034L4.10497 23.4995L8.83232 20.9416L8.87723 20.705L9.05673 19.7519C9.07596 19.6612 9.09517 19.5834 9.1144 19.5153C9.16568 19.3208 9.19135 19.2268 9.2234 19.1393C9.27468 18.9772 9.33237 18.8183 9.38685 18.6756C10.4669 15.8326 11.8226 15.1842 11.7328 15.1842C11.8034 15.1259 11.8803 15.0707 11.9572 15.0189C12.6142 14.5553 13.4732 14.2214 14.4026 14.0918C14.5436 14.0723 14.7039 14.0561 14.8705 14.0528L14.9155 14.0496L15.7712 13.0868L16.9025 11.8095L16.8416 11.8225C16.5499 11.8841 16.2583 11.9295 15.9666 11.9554Z" fill="#003EDC"/>
<path d="M26.2369 15.9506C26.0607 16.4272 25.7786 16.7936 25.362 17.0432C24.955 17.2895 24.487 17.4095 23.9614 17.4095C23.4197 17.4095 22.9967 17.2993 22.689 17.0626C22.3813 16.8292 22.2211 16.5116 22.2211 16.1096C22.2211 15.2732 22.8524 14.8517 24.1184 14.8517H26.2369V15.9506ZM27.9901 9.62597C27.1087 8.83173 25.8428 8.42969 24.1954 8.42969C23.3461 8.42969 22.5096 8.54317 21.6955 8.77009C20.8878 9.00026 20.1859 9.32119 19.6091 9.7329L20.7148 11.9114C21.0994 11.6066 21.5672 11.3635 22.1153 11.1787C22.6601 11.0037 23.2147 10.913 23.7819 10.913C24.6024 10.913 25.2114 11.0945 25.6152 11.4608C26.0318 11.8271 26.2369 12.3523 26.2369 13.0299H23.7819C22.2307 13.0299 21.0769 13.3216 20.3302 13.8889C19.5834 14.4627 19.2148 15.257 19.2148 16.2554C19.2148 16.8779 19.3719 17.4419 19.6924 17.9282C20.0065 18.4242 20.4648 18.8132 21.0609 19.0953C21.6635 19.3676 22.3717 19.5135 23.1954 19.5135C24.7755 19.5135 25.8524 19.0109 26.4293 18.0125V19.3545H29.317V13.2113C29.317 11.6131 28.8778 10.417 27.9901 9.62597Z" fill="#F5F0EC"/>
<path d="M53.4242 12.9443C53.5204 11.8454 53.921 10.9701 54.6421 10.2861C55.3504 9.60855 56.2285 9.27136 57.2798 9.27136C58.347 9.27136 59.2316 9.60855 59.9528 10.2861C60.6643 10.9701 61.0681 11.8454 61.161 12.9443H53.4242ZM62.5776 13.5895C62.5776 12.5035 62.3469 11.5342 61.8886 10.6913C61.4303 9.84196 60.8053 9.17735 60.0009 8.70729C59.1996 8.22426 58.2957 7.98438 57.2798 7.98438C56.2702 7.98438 55.3632 8.22426 54.5555 8.70729C53.7479 9.17735 53.1069 9.84196 52.6486 10.6978C52.1839 11.5536 51.9531 12.5197 51.9531 13.5895C51.9531 14.669 52.1903 15.6383 52.6807 16.4941C53.1614 17.337 53.8345 18.0113 54.6966 18.4911C55.5652 18.9806 56.5555 19.2205 57.6773 19.2205C58.5458 19.2205 59.3438 19.0681 60.0714 18.7569C60.7989 18.4521 61.4078 18.0048 61.8886 17.4116L61.0617 16.4423C60.6482 16.9253 60.1515 17.2851 59.5874 17.5315C59.0201 17.7746 58.3951 17.9011 57.7157 17.9011C56.517 17.9011 55.5202 17.5412 54.7286 16.8378C53.9466 16.131 53.514 15.2071 53.4242 14.053H62.552L62.5776 13.5895Z" fill="#F5F0EC"/>
<path d="M70.9286 14.3902C70.5569 13.9817 70.1081 13.7029 69.5857 13.5344C69.0537 13.3658 68.3614 13.1972 67.4928 13.0319C66.7781 12.9055 66.2269 12.7757 65.8327 12.6623C65.4289 12.5423 65.0892 12.3608 64.8199 12.1047C64.5507 11.8453 64.4161 11.5115 64.4161 11.0965C64.4161 10.5519 64.6533 10.1142 65.1372 9.7771C65.6116 9.44319 66.3198 9.27136 67.2621 9.27136C68.5024 9.27136 69.5793 9.58263 70.4767 10.218L71.1209 9.01849C70.6594 8.71376 70.0825 8.46745 69.3806 8.27618C68.6691 8.08168 67.964 7.98438 67.2621 7.98438C65.9 7.98438 64.8424 8.28262 64.0828 8.87263C63.3232 9.45615 62.9482 10.218 62.9482 11.1354C62.9482 11.8778 63.1373 12.4613 63.5155 12.8795C63.8937 13.3042 64.352 13.596 64.8904 13.7743C65.4353 13.9493 66.1468 14.1178 67.0345 14.2864C67.698 14.3999 68.2268 14.5101 68.6274 14.6301C69.0344 14.75 69.3646 14.9251 69.6242 15.1553C69.887 15.3887 70.0184 15.7096 70.0184 16.1083C70.0184 16.6854 69.7812 17.1327 69.3037 17.4439C68.8262 17.7551 68.0922 17.9141 67.0954 17.9141C66.3455 17.9141 65.6243 17.8038 64.9385 17.5704C64.243 17.337 63.6758 17.0452 63.2174 16.6757L62.5508 17.8524C63.0091 18.2447 63.6437 18.5721 64.4481 18.8282C65.2558 19.0908 66.1083 19.2205 66.9929 19.2205C68.3999 19.2205 69.5056 18.9287 70.3004 18.3711C71.0952 17.8038 71.4927 17.0387 71.4927 16.0694C71.4927 15.3595 71.31 14.7986 70.9286 14.3902Z" fill="#F5F0EC"/>
<path d="M81.9374 15.8393C81.5785 16.5006 81.0977 17.0063 80.4727 17.3629C79.8478 17.7162 79.1619 17.9011 78.3959 17.9011C77.6171 17.9011 76.9216 17.7162 76.3159 17.3629C75.7005 17.0063 75.2102 16.5006 74.8609 15.8393C74.5051 15.1812 74.332 14.4323 74.332 13.5895C74.332 12.7531 74.5051 12.0107 74.8609 11.3591C75.2102 10.7043 75.7005 10.2018 76.3159 9.83543C76.9216 9.47235 77.6171 9.29083 78.3959 9.29083C79.1619 9.29083 79.8478 9.47235 80.4727 9.83543C81.0977 10.2018 81.5785 10.7043 81.9374 11.3591C82.29 12.0107 82.4631 12.7531 82.4631 13.5895C82.4631 14.4323 82.29 15.1812 81.9374 15.8393ZM83.2291 10.6718C82.7643 9.82249 82.1073 9.1612 81.2804 8.6879C80.4503 8.22432 79.5241 7.98438 78.5017 7.98438C77.5883 7.98438 76.7646 8.18539 76.0371 8.57765C75.3192 8.96991 74.7359 9.53072 74.2904 10.2569V8.07515H72.877V23.1852H74.3545V17.0387C74.8032 17.7487 75.3929 18.2933 76.1012 18.6596C76.8223 19.0357 77.6171 19.2205 78.5017 19.2205C79.5401 19.2205 80.4728 18.987 81.2932 18.517C82.1169 18.0469 82.7643 17.3889 83.2291 16.533C83.7066 15.6772 83.9373 14.7014 83.9373 13.5895C83.9373 12.5035 83.7066 11.5277 83.2291 10.6718Z" fill="#F5F0EC"/>
<path d="M86.1664 12.9443C86.269 11.8454 86.6696 10.9701 87.3843 10.2861C88.0926 9.60855 88.9804 9.27136 90.0285 9.27136C91.0893 9.27136 91.9834 9.60855 92.6949 10.2861C93.4065 10.9701 93.8103 11.8454 93.9032 12.9443H86.1664ZM95.3199 13.5895C95.3199 12.5035 95.0891 11.5342 94.6308 10.6913C94.1789 9.84196 93.5475 9.17735 92.7431 8.70729C91.9418 8.22426 91.0316 7.98438 90.0285 7.98438C89.0189 7.98438 88.1087 8.22426 87.2946 8.70729C86.4869 9.17735 85.8492 9.84196 85.3908 10.6978C84.9261 11.5536 84.6953 12.5197 84.6953 13.5895C84.6953 14.669 84.9389 15.6383 85.4229 16.4941C85.9036 17.337 86.5767 18.0113 87.4452 18.4911C88.3074 18.9806 89.3041 19.2205 90.4162 19.2205C91.2944 19.2205 92.0925 19.0681 92.82 18.7569C93.5475 18.4521 94.1468 18.0048 94.6308 17.4116L93.8007 16.4423C93.3905 16.9253 92.9001 17.2851 92.3296 17.5315C91.7591 17.7746 91.1373 17.9011 90.4675 17.9011C89.256 17.9011 88.2593 17.5412 87.4773 16.8378C86.6889 16.131 86.253 15.2071 86.1664 14.053H95.2942L95.3199 13.5895Z" fill="#F5F0EC"/>
<path d="M104.708 16.2737L105.808 17.0323C105.375 17.7455 104.788 18.29 104.045 18.6564C103.295 19.0324 102.455 19.2173 101.532 19.2173C100.449 19.2173 99.4842 18.9773 98.6381 18.504C97.7856 18.0242 97.1221 17.3597 96.6318 16.4973C96.1478 15.635 95.9043 14.6657 95.9043 13.5862C95.9043 12.5164 96.1478 11.5471 96.6318 10.6946C97.1221 9.83872 97.7856 9.1741 98.6381 8.7008C99.4842 8.22426 100.449 7.98438 101.532 7.98438C102.471 7.98438 103.311 8.17563 104.055 8.54196C104.798 8.91152 105.375 9.4529 105.808 10.1661L104.708 10.9247C104.346 10.3801 103.888 9.97485 103.333 9.69281C102.782 9.4205 102.18 9.28758 101.532 9.28758C100.741 9.28758 100.029 9.46261 99.4073 9.82245C98.7727 10.1823 98.2823 10.6848 97.9266 11.3397C97.5804 12.0042 97.4074 12.7466 97.4074 13.5862C97.4074 14.4421 97.5804 15.1941 97.9266 15.849C98.2823 16.4973 98.7727 16.9998 99.4073 17.3596C100.029 17.713 100.741 17.8978 101.532 17.8978C102.18 17.8978 102.782 17.7617 103.333 17.4958C103.888 17.2235 104.346 16.8248 104.708 16.2737Z" fill="#F5F0EC"/>
<path d="M112.473 17.4079C112.268 17.5927 112.022 17.7288 111.739 17.8229C111.454 17.9298 111.163 17.9752 110.855 17.9752C110.243 17.9752 109.778 17.797 109.454 17.4566C109.131 17.1194 108.964 16.6169 108.964 15.9588V9.37154H112.284V8.11044H108.964V5.69531H107.496V16.0399C107.496 17.061 107.772 17.8553 108.323 18.4129C108.877 18.977 109.666 19.2558 110.688 19.2558C111.131 19.2558 111.557 19.1909 111.967 19.0548C112.371 18.9186 112.717 18.7273 112.996 18.481L112.473 17.4079Z" fill="#F5F0EC"/>
<path d="M26.2369 15.9506C26.0607 16.4272 25.7786 16.7936 25.362 17.0432C24.955 17.2895 24.487 17.4095 23.9614 17.4095C23.4197 17.4095 22.9967 17.2993 22.689 17.0626C22.3813 16.8292 22.2211 16.5116 22.2211 16.1096C22.2211 15.2732 22.8524 14.8517 24.1184 14.8517H26.2369V15.9506ZM27.9901 9.62597C27.1087 8.83173 25.8428 8.42969 24.1954 8.42969C23.3461 8.42969 22.5096 8.54317 21.6955 8.77009C20.8878 9.00026 20.1859 9.32119 19.6091 9.7329L20.7148 11.9114C21.0994 11.6066 21.5672 11.3635 22.1153 11.1787C22.6601 11.0037 23.2147 10.913 23.7819 10.913C24.6024 10.913 25.2114 11.0945 25.6152 11.4608C26.0318 11.8271 26.2369 12.3523 26.2369 13.0299H23.7819C22.2307 13.0299 21.0769 13.3216 20.3302 13.8889C19.5834 14.4627 19.2148 15.257 19.2148 16.2554C19.2148 16.8779 19.3719 17.4419 19.6924 17.9282C20.0065 18.4242 20.4648 18.8132 21.0609 19.0953C21.6635 19.3676 22.3717 19.5135 23.1954 19.5135C24.7755 19.5135 25.8524 19.0109 26.4293 18.0125V19.3545H29.317V13.2113C29.317 11.6131 28.8778 10.417 27.9901 9.62597Z" fill="#F5F0EC"/>
<path d="M45.3151 13.1756H41.4467V5.80699H45.3151C46.7541 5.80699 47.8535 6.12468 48.6098 6.76655C49.3694 7.39871 49.7475 8.30639 49.7475 9.49937C49.7475 10.6664 49.3694 11.5644 48.6098 12.2128C47.8535 12.8514 46.7541 13.1756 45.3151 13.1756ZM37.7706 16.1353C37.2578 16.6735 36.6103 16.949 35.8347 16.949C35.0431 16.949 34.3925 16.6735 33.8797 16.1353C33.3573 15.6004 33.1009 14.8808 33.1009 13.9698C33.1009 13.0654 33.3573 12.3425 33.8797 11.8011C34.3925 11.2597 35.0431 10.9874 35.8347 10.9874C36.6103 10.9874 37.2578 11.2597 37.7706 11.8011C38.2834 12.3425 38.5365 13.0654 38.5365 13.9698C38.5365 14.8808 38.2834 15.6004 37.7706 16.1353ZM47.9721 14.1222C49.0297 13.7721 49.8501 13.2015 50.427 12.4105C50.9975 11.6163 51.2892 10.6535 51.2892 9.49937C51.2892 7.93358 50.7604 6.70173 49.7091 5.80699C48.6547 4.91226 47.2028 4.46484 45.3535 4.46484L38.4788 4.51352V9.72953C37.7161 8.86072 36.6552 8.42631 35.2995 8.42631C34.2964 8.42631 33.3862 8.65652 32.5817 9.11361C31.7676 9.56098 31.1363 10.2061 30.6683 11.049C30.2068 11.8918 29.9824 12.8611 29.9824 13.9698C29.9824 15.0753 30.2068 16.0511 30.6683 16.8874C31.1363 17.7271 31.7676 18.3754 32.5817 18.826C33.3862 19.2831 34.2964 19.5101 35.2995 19.5101C36.745 19.5101 37.8539 19.0465 38.6198 18.1096V19.3512H41.5653V14.495H45.3535C45.7574 14.495 46.142 14.4755 46.517 14.4334L49.8341 19.1567H51.5199L47.9721 14.1222Z" fill="#F5F0EC"/>
<path d="M53.4242 12.9443C53.5204 11.8454 53.921 10.9701 54.6421 10.2861C55.3504 9.60855 56.2285 9.27136 57.2798 9.27136C58.347 9.27136 59.2316 9.60855 59.9528 10.2861C60.6643 10.9701 61.0681 11.8454 61.161 12.9443H53.4242ZM62.5776 13.5895C62.5776 12.5035 62.3469 11.5342 61.8886 10.6913C61.4303 9.84196 60.8053 9.17735 60.0009 8.70729C59.1996 8.22426 58.2957 7.98438 57.2798 7.98438C56.2702 7.98438 55.3632 8.22426 54.5555 8.70729C53.7479 9.17735 53.1069 9.84196 52.6486 10.6978C52.1839 11.5536 51.9531 12.5197 51.9531 13.5895C51.9531 14.669 52.1903 15.6383 52.6807 16.4941C53.1614 17.337 53.8345 18.0113 54.6966 18.4911C55.5652 18.9806 56.5555 19.2205 57.6773 19.2205C58.5458 19.2205 59.3438 19.0681 60.0714 18.7569C60.7989 18.4521 61.4078 18.0048 61.8886 17.4116L61.0617 16.4423C60.6482 16.9253 60.1515 17.2851 59.5874 17.5315C59.0201 17.7746 58.3951 17.9011 57.7157 17.9011C56.517 17.9011 55.5202 17.5412 54.7286 16.8378C53.9466 16.131 53.514 15.2071 53.4242 14.053H62.552L62.5776 13.5895Z" fill="#F5F0EC"/>
<path d="M70.9287 14.3869C71.31 14.7954 71.4895 15.353 71.4895 16.0662C71.4895 17.0322 71.0952 17.8006 70.2972 18.3679C69.5056 18.9287 68.3999 19.2173 66.9929 19.2173C66.1083 19.2173 65.2558 19.0875 64.4481 18.8249C63.6405 18.5688 63.0091 18.2414 62.5508 17.8492L63.2142 16.6724C63.6725 17.042 64.243 17.337 64.9385 17.5704C65.6243 17.8006 66.3455 17.9141 67.0954 17.9141C68.0922 17.9141 68.8262 17.7519 69.3005 17.4407C69.7844 17.1295 70.0216 16.6821 70.0216 16.1051C70.0216 15.7064 69.887 15.3854 69.6242 15.1553C69.3646 14.9219 69.0312 14.7468 68.6306 14.6268C68.2268 14.5069 67.698 14.3934 67.0313 14.2832C66.1468 14.1146 65.4353 13.9461 64.8904 13.771C64.352 13.596 63.8937 13.301 63.5155 12.8763C63.1373 12.4613 62.945 11.8778 62.945 11.1322C62.945 10.2147 63.3264 9.4529 64.086 8.86938C64.8424 8.27937 65.9032 7.98438 67.2621 7.98438C67.964 7.98438 68.6691 8.07843 69.3806 8.26969C70.0857 8.4642 70.6594 8.71052 71.1209 9.01525L70.4799 10.2148C69.5793 9.58262 68.5024 9.27136 67.2621 9.27136C66.323 9.27136 65.6116 9.43671 65.1372 9.77385C64.6533 10.111 64.4161 10.5487 64.4161 11.0933C64.4161 11.5082 64.5507 11.8453 64.8199 12.1014C65.0892 12.3575 65.4289 12.5391 65.8327 12.659C66.2269 12.7725 66.7813 12.899 67.4928 13.0286C68.3614 13.1972 69.0569 13.3626 69.5857 13.5311C70.1081 13.6997 70.5569 13.9785 70.9287 14.3869Z" fill="#F5F0EC"/>
<path d="M81.9374 15.8393C81.5785 16.5006 81.0977 17.0063 80.4727 17.3629C79.8478 17.7162 79.1619 17.9011 78.3959 17.9011C77.6171 17.9011 76.9216 17.7162 76.3159 17.3629C75.7005 17.0063 75.2102 16.5006 74.8609 15.8393C74.5051 15.1812 74.332 14.4323 74.332 13.5895C74.332 12.7531 74.5051 12.0107 74.8609 11.3591C75.2102 10.7043 75.7005 10.2018 76.3159 9.83543C76.9216 9.47235 77.6171 9.29083 78.3959 9.29083C79.1619 9.29083 79.8478 9.47235 80.4727 9.83543C81.0977 10.2018 81.5785 10.7043 81.9374 11.3591C82.29 12.0107 82.4631 12.7531 82.4631 13.5895C82.4631 14.4323 82.29 15.1812 81.9374 15.8393ZM83.2291 10.6718C82.7643 9.82249 82.1073 9.1612 81.2804 8.6879C80.4503 8.22432 79.5241 7.98438 78.5017 7.98438C77.5883 7.98438 76.7646 8.18539 76.0371 8.57765C75.3192 8.96991 74.7359 9.53072 74.2904 10.2569V8.07515H72.877V23.1852H74.3545V17.0387C74.8032 17.7487 75.3929 18.2933 76.1012 18.6596C76.8223 19.0357 77.6171 19.2205 78.5017 19.2205C79.5401 19.2205 80.4728 18.987 81.2932 18.517C82.1169 18.0469 82.7643 17.3889 83.2291 16.533C83.7066 15.6772 83.9373 14.7014 83.9373 13.5895C83.9373 12.5035 83.7066 11.5277 83.2291 10.6718Z" fill="#F5F0EC"/>
<path d="M86.1664 12.9443C86.269 11.8454 86.6696 10.9701 87.3843 10.2861C88.0926 9.60855 88.9804 9.27136 90.0285 9.27136C91.0893 9.27136 91.9834 9.60855 92.6949 10.2861C93.4065 10.9701 93.8103 11.8454 93.9032 12.9443H86.1664ZM95.3199 13.5895C95.3199 12.5035 95.0891 11.5342 94.6308 10.6913C94.1789 9.84196 93.5475 9.17735 92.7431 8.70729C91.9418 8.22426 91.0316 7.98438 90.0285 7.98438C89.0189 7.98438 88.1087 8.22426 87.2946 8.70729C86.4869 9.17735 85.8492 9.84196 85.3908 10.6978C84.9261 11.5536 84.6953 12.5197 84.6953 13.5895C84.6953 14.669 84.9389 15.6383 85.4229 16.4941C85.9036 17.337 86.5767 18.0113 87.4452 18.4911C88.3074 18.9806 89.3041 19.2205 90.4162 19.2205C91.2944 19.2205 92.0925 19.0681 92.82 18.7569C93.5475 18.4521 94.1468 18.0048 94.6308 17.4116L93.8007 16.4423C93.3905 16.9253 92.9001 17.2851 92.3296 17.5315C91.7591 17.7746 91.1373 17.9011 90.4675 17.9011C89.256 17.9011 88.2593 17.5412 87.4773 16.8378C86.6889 16.131 86.253 15.2071 86.1664 14.053H95.2942L95.3199 13.5895Z" fill="#F5F0EC"/>
<path d="M112.999 18.4777C112.723 18.7273 112.374 18.9186 111.97 19.0548C111.56 19.1909 111.134 19.2558 110.691 19.2558C109.672 19.2558 108.881 18.9737 108.326 18.4161C107.775 17.8553 107.496 17.0643 107.496 16.0399V5.69531H108.967V8.11044H112.288V9.37154H108.967V15.9621C108.967 16.6169 109.134 17.1194 109.458 17.4566C109.781 17.8002 110.249 17.9752 110.858 17.9752C111.166 17.9752 111.457 17.9266 111.743 17.8229C112.028 17.7288 112.272 17.5927 112.477 17.4079L112.999 18.4777Z" fill="#F5F0EC"/>
</svg>
