<svg width="24" height="24" viewBox="0 0 24 24" fill="none" xmlns="http://www.w3.org/2000/svg">
<path d="M13.6151 12.0006L17.6514 7.96311C17.7605 7.85778 17.8475 7.73179 17.9073 7.59248C17.9671 7.45318 17.9986 7.30335 18 7.15174C18.0013 7.00013 17.9724 6.84977 17.915 6.70945C17.8576 6.56912 17.7728 6.44164 17.6656 6.33443C17.5584 6.22722 17.4309 6.14244 17.2905 6.08503C17.1502 6.02762 16.9999 5.99873 16.8483 6.00004C16.6967 6.00136 16.5468 6.03286 16.4075 6.0927C16.2682 6.15254 16.1422 6.23953 16.0369 6.34858L11.9994 10.3849L7.96311 6.34858C7.85778 6.23953 7.73179 6.15254 7.59248 6.0927C7.45318 6.03286 7.30335 6.00136 7.15174 6.00004C7.00013 5.99873 6.84977 6.02762 6.70945 6.08503C6.56912 6.14244 6.44164 6.22722 6.33443 6.33443C6.22722 6.44164 6.14244 6.56912 6.08503 6.70945C6.02762 6.84977 5.99873 7.00013 6.00004 7.15174C6.00136 7.30335 6.03286 7.45318 6.0927 7.59248C6.15254 7.73179 6.23953 7.85778 6.34858 7.96311L10.3849 11.9994L6.34858 16.0369C6.23953 16.1422 6.15254 16.2682 6.0927 16.4075C6.03286 16.5468 6.00136 16.6967 6.00004 16.8483C5.99873 16.9999 6.02762 17.1502 6.08503 17.2905C6.14244 17.4309 6.22722 17.5584 6.33443 17.6656C6.44164 17.7728 6.56912 17.8576 6.70945 17.915C6.84977 17.9724 7.00013 18.0013 7.15174 18C7.30335 17.9986 7.45318 17.9671 7.59248 17.9073C7.73179 17.8475 7.85778 17.7605 7.96311 17.6514L11.9994 13.6151L16.0369 17.6514C16.1422 17.7605 16.2682 17.8475 16.4075 17.9073C16.5468 17.9671 16.6967 17.9986 16.8483 18C16.9999 18.0013 17.1502 17.9724 17.2905 17.915C17.4309 17.8576 17.5584 17.7728 17.6656 17.6656C17.7728 17.5584 17.8576 17.4309 17.915 17.2905C17.9724 17.1502 18.0013 16.9999 18 16.8483C17.9986 16.6967 17.9671 16.5468 17.9073 16.4075C17.8475 16.2682 17.7605 16.1422 17.6514 16.0369L13.6151 11.9994V12.0006Z" fill="#111111"/>
</svg>
